# xmcd CD database file
#
# Track frame offsets:
#	150
#	21754
#	40765
#	62369
#
# Disc length: 1081 seconds
#
# Revision: 4
# Processed by: cddbd v1.5.1PL2 Copyright (c) Steve Scherf et al.
# Submitted via: CDex 1.51
#
DISCID=25043704
DTITLE=大佛はずむ（植田佳奈）・神泉やす菜（堀江由衣）・来栖とまり（田村ゆかり） - コンパス 〜笑顔の行方〜
DYEAR=2005
DGENRE=Anime
TTITLE0=コンパス 〜笑顔の行方〜
TTITLE1=花笑みとかすみ草
TTITLE2=コンパス 〜笑顔の行方〜 (off vocal)
TTITLE3=花笑みとかすみ草 (off vocal)
EXTD=YEAR: 2005
EXTT0=
EXTT1=
EXTT2=
EXTT3=
PLAYORDER=
